<svg xmlns="http://www.w3.org/2000/svg" width="26" height="25"><path fill-rule="evenodd" fill="#FFF" d="M25.456 24.172a1.648 1.648 0 0 1-1.163.473c-.42 0-.842-.157-1.163-.473l-4.335-4.271a11.219 11.219 0 0 1-6.836 2.317C5.793 22.218.777 17.276.777 11.202S5.793.185 11.959.185s11.182 4.943 11.182 11.017c0 2.37-.771 4.562-2.068 6.361l4.383 4.318a1.603 1.603 0 0 1 0 2.291zM11.96 2.778c-4.715 0-8.551 3.779-8.551 8.424s3.836 8.424 8.551 8.425c2.104 0 4.03-.757 5.521-2.003.46-.385.874-.819 1.243-1.289a8.287 8.287 0 0 0 1.786-5.133c0-4.645-3.836-8.424-8.55-8.424zm4.85 6.803c-.185.087-.381.13-.576.13-.487 0-.954-.267-1.182-.728a4.148 4.148 0 0 0-3.748-2.309c-.726 0-1.316-.58-1.316-1.297 0-.714.59-1.296 1.316-1.296 2.621 0 4.964 1.444 6.112 3.766.319.644.048 1.42-.606 1.734z"/></svg>